<svg xmlns="http://www.w3.org/2000/svg" viewBox="0 0 4680 3120" id="autoresponders-automate-email-replies-for-efficient-communication"><g data-name="9"><rect width="4680" height="3120" fill="#fff" data-name="9" opacity="0"></rect><path fill="#caebff" d="M2926.6,639.52c427.43-3.73,1029.85,624.39,956.45,1176.3C3824,2260,3590.5,2500.83,3391.52,2492s-2537.33-29.35-2537.33-29.35-387.77-525.27-56.86-1015.43C1004.52,1140.3,1814.69,1339.6,2004,1141.85S2358.56,644.49,2926.6,639.52Z"></path><path fill="#4bddb0" d="M3806.92,2206.25c18.4-23.62,40.58-43.82,65.95-55.79,29.08-13.73,61.26-16.15,92.1-11.89,27.3,3.77,55,13.31,74.83,34.88s29.81,57.27,18.27,86.49c-8.82,22.34-28.56,37.31-49.15,43.07s-42.09,3.48-62.76-.78-41.06-10.45-62-12.46a162.17,162.17,0,0,0-81.34,13.64c-11.82,5.27-25.69,13-37.75,5.2-9.49-6.14-9.78-15-4.86-25.36C3773,2256.19,3789,2229.22,3806.92,2206.25Z"></path><path fill="#1fa47c" d="M3951.56,2189.36c-103.79-29.13-192.39,80.71-221.92,167.07-3.79,11.1,13.62,16.56,17.42,5.44,15.65-45.77,42.71-87.2,79.31-119,32.74-28.41,76-48.39,119.75-36.12C3957.39,2210,3962.9,2192.55,3951.56,2189.36Z"></path><path fill="#137756" d="M3764.63,1884.05c-10.6-36.1-27.77-70.65-55.65-93.85s-67.8-33.41-103.86-19.57c-27.87,10.69-50.58,34.22-67.26,60.21-19.32,30.12-32,64.74-34.48,99.52s5.36,69.58,23.72,96.84c16,23.73,39,41,61.68,57.85l102.51,76.29c7.89,5.88,16.79,12,26.95,10.61,29.49-4.11,41.41-68,47.68-92a381.22,381.22,0,0,0,11.36-127.35A344,344,0,0,0,3764.63,1884.05Z"></path><path fill="#1fa47c" d="M3716.66 2376.44c36.91-155.05 14.26-321.13-61.57-461.15-5.92-10.94-21.72.2-15.86 11 73.45 135.62 94.06 297.05 58.38 446.94C3694.73 2385.33 3713.79 2388.5 3716.66 2376.44zM4013.25 1864.53c23.95-11.81 49.49-20.89 76-24s54.11-.1 78.24 11.32c43.25 20.47 71.56 68.9 68.17 116.63s-38.28 91.67-84 105.81c-35.58 11-73.83 4.91-111 3.24a458.15 458.15 0 00-115.16 9.46c-20.6 4.36-77 30.19-91.36 3.46-10.42-19.35 13.8-53.32 22.2-69.68a360.63 360.63 0 0161.25-86.06A347 347 0 014013.25 1864.53z"></path><path fill="#137756" d="M4069.57,1914.06c-141.5,33.29-236,155.89-293,282.22-18.51,41.07-34.21,83.31-49.06,125.82-4.1,11.73,14.58,16.62,18.66,5,46.28-132.48,105.94-272.47,228.65-351.5a319.16,319.16,0,0,1,99.87-42.88C4086.82,1929.82,4081.68,1911.21,4069.57,1914.06Z"></path><path fill="#4bddb0" d="M3921.1,1782.92c8.53-25.11,16.19-50.8,18.14-77.14s-2.19-53.64-15.83-75.64c-21.11-34.05-62.11-50.59-101.92-52.36-30-1.33-61.17,4.9-87,21.53s-45.58,44.39-49.22,75.07c-4.3,36.28,13.47,70.64,32.67,100.8s41,60.39,46.24,96.28c2.48,17,1.08,34.38,1.5,51.61s2.88,35,12.11,49.18c7.57,11.64,23.66,23.32,38.43,20.27,12.08-2.5,18.15-17.38,23.62-27.15a1092.78,1092.78,0,0,0,56.28-116.14Q3909.71,1816.49,3921.1,1782.92Z"></path><path fill="#1fa47c" d="M3831.82,1853q6.63-73.29,9.26-146.86c.45-12.24-18.6-15.61-19-3.19a2725.37,2725.37,0,0,1-66.83,508.84q-16.44,71.73-36.76,142.49c-3.42,11.91,15.65,15,19,3.18A2724.85,2724.85,0,0,0,3831.82,1853Z"></path><ellipse cx="2211.4" cy="2545.93" fill="#a53e7f" rx="1743.54" ry="214.07"></ellipse><path fill="#063c49" d="M1083.84,2636.13l879-138.85c62.21-9.83,164.58-72.77,165-135L2087.07,499.93c.36-62.27-49.77-104.78-112-94.95l-821.29,97.56c-100.36,15.86-170.66,109.56-171,171.83l-10.92,1866.8C971.49,2603.44,1021.62,2646,1083.84,2636.13Z"></path><path fill="#065f82" d="M1152.59,2592.56l879-138.85c62.21-9.82,112.94-68.27,113.31-130.54l10.91-1866.8c.37-62.27-49.77-104.79-112-95l-879,138.85c-62.21,9.83-112.94,68.28-113.3,130.55l-10.92,1866.8C1040.24,2559.88,1090.38,2602.39,1152.59,2592.56Z"></path><path fill="#209dce" d="M1157.57,2552.67l869.5-137.35c47.35-7.48,86-52,86.23-99.34l10.81-1848.82c.28-47.39-37.88-79.74-85.22-72.26l-869.5,137.35c-47.35,7.47-86,52-86.23,99.34l-10.81,1848.82C1072.07,2527.8,1110.23,2560.15,1157.57,2552.67Z"></path><path fill="#3f6395" d="M1519,2449.11l181.24-28.63c21-3.32,38.25-23.21,38.37-44.22h0c.13-21-16.94-35.48-37.93-32.16l-181.23,28.63c-21,3.31-38.26,23.21-38.38,44.21h0C1481,2438,1498,2452.42,1519,2449.11Z"></path><ellipse cx="2009.84" cy="467.93" fill="#3f6395" rx="31.09" ry="26.4" transform="rotate(-47.34 2009.646 467.966)"></ellipse><path fill="#3f6395" d="M1915.82,482.78c-.06,9.54,7.63,16.06,17.16,14.55s17.31-10.46,17.36-20-7.63-16.06-17.16-14.55S1915.88,473.24,1915.82,482.78Z"></path><polygon fill="#77caf0" points="1119.09 2392.36 2074.77 2241.4 2084.77 532.41 1129.08 683.37 1119.09 2392.36"></polygon><path fill="#fff" d="M1119.09,2392.36l955.68-151,1.5-256.94c-333.63-143.27-734.73-165.71-953.83-165.68Z" opacity=".39"></path><path fill="#ffe356" d="M3343.07,796.54c8.69,3.11,115.8,69.15,115.8,69.15l306.65-76.26Z"></path><polygon fill="#fc0" points="3463.19 998.76 3458.87 865.69 3765.52 789.42 3463.19 998.76"></polygon><polygon fill="#ffaf32" points="3463.19 998.76 3545.38 911.41 3765.52 789.42 3463.19 998.76"></polygon><polygon fill="#ffe356" points="3545.38 911.41 3679.89 989.46 3765.52 789.42 3545.38 911.41"></polygon><path d="M3341.68,1061.7c-5.76.48-11.7.77-17.66.85a3.06,3.06,0,1,1-.08-6.11c5.81-.08,11.61-.36,17.22-.83a3.06,3.06,0,0,1,.55,6.09Zm14.05-4.68a3.06,3.06,0,0,1,2.53-3.51c5.71-.93,11.38-2.09,16.84-3.46a3.06,3.06,0,0,1,1.49,5.93c-5.63,1.41-11.47,2.61-17.35,3.57l-.21,0A3,3,0,0,1,3355.73,1057Zm-49.36,5.2c-5.76-.29-11.67-.77-17.59-1.41a3.05,3.05,0,0,1,.66-6.07c5.8.63,11.6,1.09,17.23,1.37a3.06,3.06,0,0,1,.14,6.1Zm83.32-13.19a3.06,3.06,0,0,1,1.87-3.9c5.44-1.9,10.79-4.07,15.9-6.45a3.06,3.06,0,0,1,2.58,5.55c-5.29,2.46-10.83,4.7-16.46,6.67a2.67,2.67,0,0,1-.72.16A3.05,3.05,0,0,1,3389.69,1049Zm-118.37,9.42c-5.67-.92-11.5-2-17.31-3.23a3.06,3.06,0,0,1,1.26-6c5.72,1.2,11.45,2.27,17,3.17a3.06,3.06,0,0,1-.2,6.06A2.92,2.92,0,0,1,3271.32,1058.45Zm150.23-23.59a3.08,3.08,0,0,1,1-4.2,151,151,0,0,0,14.17-9.6,3.05,3.05,0,1,1,3.71,4.85,158.52,158.52,0,0,1-14.73,10,3.07,3.07,0,0,1-4.2-1.05Zm-184.67,16.35c-5.56-1.42-11.26-3-17-4.7a3.06,3.06,0,0,1,1.75-5.86c5.61,1.68,11.23,3.24,16.71,4.64a3.05,3.05,0,0,1-.46,6A2.88,2.88,0,0,1,3236.88,1051.21Zm-33.69-10c-5.44-1.83-11-3.82-16.55-5.89a3.05,3.05,0,0,1,2.14-5.72c5.48,2,11,4,16.36,5.82a3.06,3.06,0,0,1-.69,5.94A2.9,2.9,0,0,1,3203.19,1041.18Zm246.45-27a3.05,3.05,0,0,1,0-4.32,88,88,0,0,0,10.95-12.75h0a3.05,3.05,0,0,1,5.14,3.3,89.88,89.88,0,0,1-11.8,13.8,3.07,3.07,0,0,1-4.32,0Zm-279.35,14.71c-5.31-2.18-10.74-4.49-16.15-6.87a3.06,3.06,0,0,1,2.47-5.59c5.35,2.36,10.74,4.65,16,6.8a3.06,3.06,0,0,1-2.32,5.66Zm-32.1-14.16-.86-.41c-5-2.35-10-4.7-14.94-7a3.05,3.05,0,0,1,2.55-5.55c5,2.28,10,4.64,15,7l.85.4a3.06,3.06,0,1,1-2.61,5.53Zm-31.69-14.55c-5.27-2.34-10.65-4.69-16-7a3.06,3.06,0,0,1,2.41-5.62c5.35,2.3,10.75,4.65,16.05,7a3.06,3.06,0,1,1-2.48,5.59Zm-372.87,20.41a3.06,3.06,0,0,1-.43-6.1,109.07,109.07,0,0,0,16.79-2.56,3.06,3.06,0,0,1,1.37,6,116.91,116.91,0,0,1-15.1,2.48C2735.38,1020.45,2734.5,1020.53,2733.63,1020.59Zm340.83-34.14c-5.38-2.21-10.81-4.42-16.16-6.54a3.06,3.06,0,0,1,2.26-5.68c5.37,2.13,10.83,4.35,16.23,6.57a3.06,3.06,0,0,1-.88,5.87A2.93,2.93,0,0,1,3074.46,986.45ZM2715.55,1020a58.81,58.81,0,0,1-17.58-5.25,3.05,3.05,0,1,1,2.7-5.48,52.93,52.93,0,0,0,15.76,4.68,3.05,3.05,0,0,1-.15,6.06A3,3,0,0,1,2715.55,1020Zm49-9.11a3.05,3.05,0,0,1,1.79-3.93,141.66,141.66,0,0,0,15.62-7,3.06,3.06,0,0,1,2.82,5.43,151.34,151.34,0,0,1-16.3,7.25,3.66,3.66,0,0,1-.78.18A3.06,3.06,0,0,1,2764.53,1010.92Zm277.53-37.33c-5.42-2.07-10.92-4.13-16.33-6.1a3.06,3.06,0,0,1,2.1-5.74c5.44,2,11,4,16.41,6.12a3.06,3.06,0,0,1-.8,5.9A3,3,0,0,1,3042.06,973.59Zm-246.24,21.94a3.06,3.06,0,0,1,.8-4.25,134.46,134.46,0,0,0,13.47-10.5,3.06,3.06,0,0,1,4.07,4.56,140.22,140.22,0,0,1-14.09,11,3.11,3.11,0,0,1-1.43.52A3.07,3.07,0,0,1,2795.82,995.53Zm-112.48,7.71a43.78,43.78,0,0,1-8.19-16.71,3.05,3.05,0,1,1,5.91-1.52,37.64,37.64,0,0,0,7.05,14.39,3.06,3.06,0,0,1-.47,4.3,3,3,0,0,1-1.62.66A3,3,0,0,1,2683.34,1003.24Zm326-41.62c-5.49-1.91-11-3.81-16.49-5.62a3.06,3.06,0,1,1,1.93-5.8c5.47,1.82,11,3.72,16.58,5.65a3.06,3.06,0,1,1-2,5.77Zm-187,11.27a3.06,3.06,0,0,1-.38-4.3,99.68,99.68,0,0,0,9.75-13.84,3.06,3.06,0,0,1,5.29,3.06,105.39,105.39,0,0,1-10.35,14.7,3.06,3.06,0,0,1-4.31.38Zm153.92-22.25c-5.57-1.76-11.17-3.47-16.65-5.1a3.06,3.06,0,0,1,1.74-5.86c5.51,1.64,11.15,3.36,16.75,5.13a3.06,3.06,0,0,1-.63,6A3,3,0,0,1,2976.25,950.64ZM2676.3,971.51a3.06,3.06,0,0,1-2.9-3.2,52.22,52.22,0,0,1,4-18,3.05,3.05,0,0,1,5.61,2.41,46.09,46.09,0,0,0-3.55,15.88,3.05,3.05,0,0,1-2.76,2.89A2.26,2.26,0,0,1,2676.3,971.51Zm266.56-30.78c-5.62-1.57-11.28-3.09-16.82-4.52a3.06,3.06,0,1,1,1.53-5.92c5.57,1.44,11.27,3,16.92,4.55a3.05,3.05,0,0,1-.53,6A3,3,0,0,1,2942.86,940.73Zm-102.26,2.59a3,3,0,0,1-1.91-3.87,75.57,75.57,0,0,0,3.57-16.35,3.06,3.06,0,0,1,6.08.63,81.43,81.43,0,0,1-3.86,17.67,3.05,3.05,0,0,1-3.88,1.92ZM2909.14,932c-5.7-1.35-11.41-2.65-17-3.85a3.05,3.05,0,0,1,1.29-6c5.61,1.21,11.36,2.51,17.1,3.88a3.05,3.05,0,1,1-1.41,5.94Zm-34-7.32c-5.77-1.1-11.53-2.13-17.12-3.05a3.06,3.06,0,1,1,1-6c5.64.93,11.45,2,17.27,3.08a3.05,3.05,0,0,1-.28,6A2.86,2.86,0,0,1,2875.11,924.69Zm-187.26,14.67a3,3,0,0,1,0-4.32,64.87,64.87,0,0,1,14.63-10.93,3.06,3.06,0,0,1,3,5.34,58.75,58.75,0,0,0-13.25,9.88,3,3,0,0,1-1.89.89A3,3,0,0,1,2687.85,939.36Zm153-20.32c-5.84-.79-11.64-1.49-17.25-2.06a3.06,3.06,0,0,1,.63-6.08c5.67.58,11.54,1.28,17.45,2.09a3.06,3.06,0,0,1-.12,6.07A2.83,2.83,0,0,1,2840.8,919Zm-34.54-3.53c-5.92-.38-11.74-.64-17.32-.75a3.06,3.06,0,0,1,.13-6.12c5.66.12,11.58.38,17.59.77a3.06,3.06,0,0,1,.09,6.09A2.66,2.66,0,0,1,2806.26,915.51ZM2717,920.82A3.06,3.06,0,0,1,2719,917a140.9,140.9,0,0,1,17.27-4.47,3.06,3.06,0,1,1,1.17,6,135,135,0,0,0-16.52,4.27,2.67,2.67,0,0,1-.67.14A3,3,0,0,1,2717,920.82Zm125-14.44a81.8,81.8,0,0,0-3.82-16.37,3.06,3.06,0,0,1,5.79-2,87.94,87.94,0,0,1,4.09,17.59,3.06,3.06,0,0,1-2.65,3.41h-.09A3.06,3.06,0,0,1,2842.07,906.38Zm-70.43,8.47c-6,.2-11.75.59-17.21,1.15h0a3.05,3.05,0,0,1-.6-6.08l1.72-.17h0c5.07-.49,10.42-.82,15.91-1a3.06,3.06,0,0,1,.39,6.1Zm59.74-40.3a122.14,122.14,0,0,0-9.21-14.33,3.06,3.06,0,0,1,4.92-3.64,134.36,134.36,0,0,1,9.66,15,3.06,3.06,0,0,1-1.22,4.15,3,3,0,0,1-1.17.36A3.06,3.06,0,0,1,2831.38,874.55Zm-588.54,50.71a3.05,3.05,0,0,1,.44-4.3c2.86-2.32,5.88-4.67,9-7a3.06,3.06,0,1,1,3.66,4.9c-3,2.27-6,4.57-8.79,6.83a3,3,0,0,1-4.3-.44Zm23-17.2a3,3,0,0,1,.86-4.23c4.71-3.14,9.72-6.3,14.88-9.41a3.05,3.05,0,1,1,3.15,5.23c-5.08,3.07-10,6.18-14.65,9.27a3.12,3.12,0,0,1-1.4.5A3.06,3.06,0,0,1,2265.85,908.06Zm545.26-60.72a120.81,120.81,0,0,0-12.89-11.09,3.05,3.05,0,0,1,3.64-4.9A123.89,123.89,0,0,1,2815.42,843a3.05,3.05,0,1,1-4.31,4.33Zm-515.48,42.44a3,3,0,0,1,1.2-4.15c5-2.76,10.21-5.54,15.51-8.25a3.06,3.06,0,1,1,2.79,5.44c-5.25,2.68-10.41,5.43-15.35,8.16a3,3,0,0,1-4.15-1.2Zm31-16.1a3,3,0,0,1,1.45-4.07c5.18-2.47,10.55-4.93,16-7.33a3.06,3.06,0,0,1,2.48,5.59c-5.35,2.37-10.67,4.82-15.81,7.26a2.88,2.88,0,0,1-1,.28A3,3,0,0,1,2326.65,873.68ZM2783.9,827a163.5,163.5,0,0,0-15.34-7.62,3.05,3.05,0,1,1,2.43-5.6,166.14,166.14,0,0,1,15.92,7.9,3.05,3.05,0,0,1-1.22,5.7A3,3,0,0,1,2783.9,827Zm-425.38,32.39a3.05,3.05,0,0,1,1.65-4c5.33-2.22,10.8-4.42,16.28-6.55a3.06,3.06,0,0,1,2.22,5.7c-5.44,2.11-10.87,4.3-16.15,6.49a3.14,3.14,0,0,1-.89.22A3.06,3.06,0,0,1,2358.52,859.35ZM2391,846.54a3,3,0,0,1,1.83-3.91c5.43-2,11-4,16.54-5.84a3.05,3.05,0,1,1,2,5.78c-5.5,1.88-11,3.83-16.42,5.8a2.88,2.88,0,0,1-.76.17A3.06,3.06,0,0,1,2391,846.54Zm361.45-33.31c-5.28-1.75-10.85-3.36-16.55-4.79a3.06,3.06,0,1,1,1.48-5.93c5.85,1.47,11.57,3.12,17,4.92a3.06,3.06,0,0,1-.68,6A3.18,3.18,0,0,1,2752.49,813.23Zm-328.41,21.9a3.06,3.06,0,0,1,2-3.84c5.53-1.76,11.17-3.5,16.76-5.16a3.06,3.06,0,1,1,1.74,5.86c-5.55,1.65-11.15,3.37-16.64,5.13a3.63,3.63,0,0,1-.64.13A3.06,3.06,0,0,1,2424.08,835.13Zm295-30.33c-5.51-1-11.26-1.91-17.1-2.65a3.05,3.05,0,1,1,.77-6.06c5.95.75,11.81,1.66,17.43,2.69a3.06,3.06,0,0,1-.26,6.05A3,3,0,0,1,2719.06,804.8Zm-261.49,20.25a3,3,0,0,1,2.13-3.75c5.62-1.55,11.33-3.07,17-4.5a3.05,3.05,0,1,1,1.5,5.92c-5.59,1.43-11.26,2.93-16.84,4.47a2.56,2.56,0,0,1-.53.09A3,3,0,0,1,2457.57,825.05Zm33.86-8.74a3,3,0,0,1,2.28-3.67c5.69-1.33,11.45-2.61,17.11-3.81a3.06,3.06,0,1,1,1.27,6c-5.62,1.19-11.34,2.46-17,3.78a3.2,3.2,0,0,1-.41.07A3.05,3.05,0,0,1,2491.43,816.31Zm193.3-15.93c-5.62-.45-11.45-.79-17.31-1a3.06,3.06,0,0,1,.22-6.11c6,.23,11.87.57,17.57,1a3.06,3.06,0,0,1,.05,6.09A3.11,3.11,0,0,1,2684.73,800.38ZM2525.58,809a3,3,0,0,1,2.43-3.57c5.75-1.09,11.56-2.13,17.25-3.08a3,3,0,0,1,3.51,2.51,3.06,3.06,0,0,1-2.51,3.52c-5.64.94-11.4,2-17.11,3l-.29,0A3,3,0,0,1,2525.58,809Zm124.48-9.9c-5.66,0-11.5.1-17.36.3a3.06,3.06,0,1,1-.21-6.11c5.93-.2,11.84-.3,17.57-.3a3.06,3.06,0,0,1,.3,6.1Zm-90.06,4a3.06,3.06,0,0,1,2.59-3.46c5.83-.83,11.68-1.6,17.4-2.28a3.06,3.06,0,1,1,.72,6.07c-5.67.67-11.47,1.43-17.25,2.26l-.14,0A3.07,3.07,0,0,1,2560,803.06Zm55.34-2.86c-5.68.36-11.51.82-17.33,1.36a3,3,0,0,1-3.32-2.76,3.09,3.09,0,0,1,2.76-3.33c5.88-.54,11.77-1,17.5-1.37a3.06,3.06,0,0,1,.49,6.09Z"></path><path fill="#f68737" d="M1902,935.13c-17.15,1.78-568.42,328.44-568.42,328.44l-3.14,450.4,1103.84,7.71,3.14-450.4S1919.13,933.34,1902,935.13Z"></path><path fill="#209dce" d="M2263.2,1101.35v629.36a94.49,94.49,0,0,1-94.37,94.68h-556.7a94.47,94.47,0,0,1-94.37-94.67V908.62a94.41,94.41,0,0,1,94.37-94.37h363.66Z" opacity=".46"></path><path fill="#fff" d="M2308.82,1054.54V1683.9a94.48,94.48,0,0,1-94.37,94.68h-556.7a94.48,94.48,0,0,1-94.37-94.68V861.81a94.41,94.41,0,0,1,94.37-94.37h363.66Z"></path><polygon fill="#a3dbef" points="2308.82 1054.54 2021.41 1054.54 2021.41 767.44 2308.82 1054.54"></polygon><rect width="264.91" height="160.22" x="1658.1" y="1063.49" fill="#a3dbef"></rect><rect width="556" height="55.54" x="1658.1" y="1281.21" fill="#a3dbef"></rect><rect width="556" height="55.54" x="1658.1" y="1386.53" fill="#a3dbef"></rect><rect width="556" height="55.54" x="1658.1" y="1491.86" fill="#a3dbef"></rect><rect width="556" height="55.54" x="1658.1" y="1597.19" fill="#a3dbef"></rect><path fill="#343c4b" d="M1709.17 986.93a25.54 25.54 0 11-25.53-25.54A25.53 25.53 0 011709.17 986.93zM1803.64 986.93a25.53 25.53 0 11-25.53-25.54A25.52 25.52 0 011803.64 986.93z"></path><path fill="#fdd305" d="M2437,1335.77l-4,574.28-1,138.83a25.8,25.8,0,0,1-26,25.62l-420-2.92-57.09-.41L1472.16,2068l-118.41-.83a25.8,25.8,0,0,1-25.62-26l5-713.11.08,0c2.2,1.44,51.9,34,120.42,77.67,134.92,86,342.83,215.22,404.88,235.22,6.37,2.07,11.22,3,14.27,2.56,4.33-.6,12.43-3.54,23.57-8.44,67.5-29.68,247-130.53,380.72-207.06C2367.42,1376.36,2437,1335.77,2437,1335.77Z"></path><path fill="#fff" d="M2368.44 1765s-267.16-11.39-363.37 2.15C2005.07 1767.16 2248.17 1794.22 2368.44 1765zM2368.44 1825.7s-267.16-11.4-363.37 2.15C2005.07 1827.85 2248.17 1854.9 2368.44 1825.7z"></path><path fill="#fcaf2b" d="M2437 1335.76s-477.63 351.65-569.47 358.71c-91.13 7-527.5-360.62-534.3-366.36 7 4.57 491.63 322 539.57 315.45C1921 1637 2437 1335.76 2437 1335.76zM2432 2048.88a25.8 25.8 0 01-26 25.62l-1052.23-7.34a25.82 25.82 0 01-25.63-26s485.14-152.19 538.18-154S2432 2048.88 2432 2048.88z"></path><path fill="#001a30" d="M3093.18,1521.14c5.46-25.47-16.45-38.45-18-73.05s24.28-53,48.77-67.4,18.39-53.28,12-70.37-28.11-78.77,23.62-117.12,102.26-10.34,102.26-10.34l8.84,44.05c-10.52,12-37.09,26.84-76.14,28.81S3171,1292,3171,1292s111.73,126,114,128.42-19.87,162.32-19.87,162.32-90.64,22.32-118.73,1.38-77.74-19.35-75.75-30.49S3087.73,1546.6,3093.18,1521.14Z"></path><path fill="#001a30" d="M3060.8 1543.42c-.18-.23-17.79-22.92-1.45-44 14.61-18.86 10.5-32.41 6.15-46.75-3-10-6.18-20.38-2-32 4-11 12.44-18.3 21.38-26 13.41-11.54 28.61-24.61 33.89-54.4 2.14-12.06 2.36-26.08 2.59-40.91.6-38.12 1.28-81.33 37.4-99.81l2.36 4.62c-33.35 17.06-34 56.82-34.58 95.27-.23 15-.46 29.27-2.67 41.73-5.6 31.62-21.54 45.33-35.61 57.43-8.77 7.54-16.35 14.06-19.89 23.82-3.63 10-.87 19.11 2.05 28.74 4.33 14.28 9.24 30.45-7 51.43-13.83 17.87.79 36.83 1.42 37.63zM3366.16 1175.1c48.78 19.39 54 65.48 63.12 104.33s69 34 81.36 58.91-4.31 34.57 1 57.25 51.44 17.75 48.4 49.9 17.8 39.27 34.6 40.21 24.07 24 9.85 32.62-42.3 14.39-87.06 39-45.45 13.35-90.16 19.39-37.41 26.41-68.57 47.29-54.55 6.33-54.55 6.33c-21.91-24.61-21-55.52-11.57-95.26s-6.47-33.75-26.94-71.38-11.53-42.68-6-80.28-13.94-44-33.26-77.91-7.22-53.53-7.22-53.53l-17.62-45.07C3249 1161.74 3317.38 1155.72 3366.16 1175.1z"></path><path fill="#001a30" d="M3650,1483.11,3645,1482l2.53.55L3645,1482c0-.09,2-9.54-3.68-16.65-4.24-5.37-11.74-8.21-22.29-8.45-14.35-.33-24.9-4.66-31.36-12.9-6.85-8.73-8.77-21.94-5.4-37.2,2.19-9.91.75-18.24-4.14-24.09-6-7.13-17.13-10.57-32.31-10-6.35.25-10.91-1.19-14-4.41-5.5-5.74-4.68-15.56-3.8-25.94,1-12.32,2.1-25.06-7.59-30.31-7.22-3.91-16.42-6.27-26.15-8.76-21.43-5.48-45.72-11.7-52.56-37.49-16.34-61.58-49.5-84.7-67.81-93-34.77-15.77-79.29-10.43-132.31,15.84l-2.3-4.64c54.48-27,100.49-32.36,136.75-15.92,20.58,9.33,37.78,25.58,51.12,48.29a192.94,192.94,0,0,1,19.56,48.1c6.06,22.86,27.81,28.42,48.84,33.8,10,2.57,19.54,5,27.33,9.22,12.67,6.87,11.4,22,10.28,35.3-.77,9.19-1.5,17.87,2.38,21.93,2,2.08,5.29,3,10.05,2.81,16.83-.69,29.44,3.4,36.48,11.82,6,7.12,7.78,17,5.23,28.53-1.75,7.94-3.51,22.78,4.42,32.88,5.46,7,14.68,10.63,27.4,10.92,12.19.27,21,3.8,26.28,10.46C3652.51,1471.26,3650.12,1482.63,3650,1483.11Z"></path><path fill="#209dce" d="M3708.83,2338.14l-733.59,4.23s-344.5-217.17-446.72-102.59-1.71,328.18,261.36,333.47h864.06Z"></path><path fill="#209dce" d="M3294.63,2648.33l-166.82,1.2-6.61-167-.53-13.28s237.4-52.17,322.25-91.65c73.93-34.4,309.4-114.2,377.84-11.28a122.88,122.88,0,0,1,10.38,19.09C3877.19,2491.76,3769.67,2665.57,3294.63,2648.33Z"></path><path fill="#fbc5a9" d="M3121.2,2482.55l-177.33,13.51s-31.37-39.48-67-22.56-28.52,35.25-69.87,52.16-169.54,78.26-142.45,119.15,179.52-24.68,462.55-13.4Z"></path><polygon fill="#f7a18a" points="3121.2 2482.55 3097.8 2630.45 3127.09 2631.41 3121.2 2482.55"></polygon><polygon fill="#f7a18a" points="3076.92 2485.92 2982.78 2438.01 2966.36 2494.34 3076.92 2485.92"></polygon><path fill="#065f82" d="M2966.36,2494.34l19.22-65.93-302.39-157.59s270.2,169.64,274.14,184.44S2966.36,2494.34,2966.36,2494.34Z" opacity=".58"></path><path fill="#fbc5a9" d="M3379.94,1345.26c-20.87-7.33-44.37,5.1-52.5,27.74-.15.42-.25.85-.39,1.27-31.58-11.65-89.76-43.79-116.44-127.33,0,0-52.64,33.47-53.9,119s-.94,136.33,72,120.25l-7.3,92.54L3376.06,1558l-9-124.92c18.52-8,28.46-12.92,35.89-33.6C3411.12,1376.87,3400.8,1352.58,3379.94,1345.26Z"></path><path fill="#f7a18a" d="M3228.73 1486.18s51-35.15 98.76-34.16c0 0-38.74 68.36-100.58 59zM3378.15 1358a.33.33 0 01.29.58c-14.55 10.75-19.15 27.88-21 44.9 3.26-7.21 9-12.18 18.57-8.59.5.18.27.95-.22 1-7 .32-11.55 2.72-14.65 9.16-2.19 4.57-3.11 9.86-4.25 14.76-.38 1.64-3.21 1.56-3.1-.24l0-.41C3347.92 1398.76 3356.42 1365.88 3378.15 1358z"></path><path fill="#332a97" d="M2789.88,1811.27s-29.94,102.92-4.28,169.9,74.15,62.74,74.15,62.74l55.15-31.61-92.68-231.53Z"></path><path fill="#fbc5a9" d="M2854.75,1993.94l-83.41,38.3s-105.5,48.32-132.6-33.81c-22.64-68.63-45.09-313.7-51.84-392.35,23-11.19,64.74-31.34,94-46.37l109,251.56C2829.06,1839.62,2847.1,1934.46,2854.75,1993.94Z"></path><path fill="#f7a18a" d="M2854.75,1993.94l-53.88,24.74c9-86.52-11-207.41-11-207.41C2829.06,1839.62,2847.11,1934.46,2854.75,1993.94Z"></path><path fill="#e43864" d="M3745.9,2082.69l-170.74-25.92s-2.36,9.09-5.76,23c-8.86,36.18-24.83,105-25.17,131.75-.41,32.59,23.74,123.93,23.74,123.93s-33-.6-80.64,4.45c-49.46,5.24-114.68,16.58-175,41-118.35,47.93-279.43,42.89-380.65-58.62l55.78-351.61-127.74,73.21s-2.09-34.69-9-77.75c-3.09-19.24-7.16-40.16-12.45-60.4-10.58-40.52-26.05-78.33-48.4-94.49l179.19-169s41.81-52.36,125.94-58.34c0,0,22.12-2.6,47.26-6.46,10.08-1.55,20.64-3.3,30.46-5.18l23.45-47.37s13.54-13.12,97.3-13.12,102.39,12.55,102.39,12.55l19.93,40.27c11.63,1.32,24.9,2.77,38.78,4.19,20.6,2.12,42.54,4.17,62.48,5.6,78.41,5.64,111.21,23.26,166.83,148.74s77.81,192,121.9,268.6C3805.79,1991.74,3836.44,2047.43,3745.9,2082.69Z"></path><path fill="#b92357" d="M3568,2335.47s-33-.6-80.64,4.45c-11.46-83.81-57.65-272.84-16.16-310.77,43.55-39.82,1.8-200.43,1.18-203.87l58.58,200.8c8.09,23.29,37,29.44,44.23,30.69-8.86,36.18-30.59,128-30.93,154.77C3543.82,2244.13,3568,2335.47,3568,2335.47Z"></path><path fill="#b92357" d="M3779.23,2065.52c-8.68,6-19.61,11.82-33.33,17.16l-94.38,15.47s-195.26-13.07-90.62-102.88c0,0,77.42-53.66,191.85-21.72a317.42,317.42,0,0,1,54.23,20.79C3810.84,2003.71,3820.52,2036.93,3779.23,2065.52Z"></path><path fill="#121a63" d="M3395.86,1524.34s-26.46,55.18-89.78,66.36h-54.23s-64.83-38.07-55.67-65.79c0,0,13.53-13.12,97.3-13.12S3395.86,1524.34,3395.86,1524.34Z"></path><path fill="#fbc5a9" d="M3374.6,1538.4c-4.66,39-60.23,51.45-81,54.67-10,1.55-18.21,9-19.61,18.92l0,.22-6,45.53-6.93-49.1c-.43-7-2.13-14.19-9.22-18-14.43-7.76-33.38-24.27-33.38-24.27l7.89-50.94s85.23-12.18,145.13-22.46Z"></path><path fill="#b92357" d="M3233.29 1642.78s-58.54 2.33-91-65.32c10.08-1.55 20.64-3.3 30.45-5.18C3179.85 1623 3233.29 1642.78 3233.29 1642.78zM3454.58 1568.8a190.44 190.44 0 00-22.33 28c-57.07 86-131.92 55.12-131.92 55.12 99.82-11.28 115.47-87.35 115.47-87.35C3427.43 1565.93 3440.7 1567.38 3454.58 1568.8z"></path><path fill="#fbc5a9" d="M3235,2266.3c16.38-29.9,64-74.82,64-74.82s11.2-17.32,43.06,12.17c24,22.24,55,46.11,55,46.11l192.92-133s57.91-79.25,184.08-62.83c0,0,21.74,59.89,32.6,106.3s-212.52,165.36-372.16,187.62c0,0-57.14,16.68-81.8-6.13L3336,2325.38s-24.45,22.92-56.46,27.87a60.39,60.39,0,0,1-41.29-8,23.63,23.63,0,0,1-11.12-16.9C3225.09,2314.25,3223.44,2287.33,3235,2266.3Z"></path><path fill="#f7a18a" d="M3336 2327.28a1.9 1.9 0 01-1.38-3.21l14-14.73a1.9 1.9 0 012.76 2.62l-14 14.73A1.89 1.89 0 013336 2327.28zM3264.62 2355.72a1.86 1.86 0 01-1.3-.51 1.9 1.9 0 01-.09-2.69l64.94-69.78a1.9 1.9 0 012.79 2.59L3266 2355.12A1.89 1.89 0 013264.62 2355.72zM3238.2 2347.18a1.91 1.91 0 01-1.46-3.13l82.72-98.21a1.9 1.9 0 112.91 2.45l-82.72 98.21A1.87 1.87 0 013238.2 2347.18zM3225.68 2312.66a1.87 1.87 0 01-1.25-.47 1.9 1.9 0 01-.18-2.68l83.38-95.44a1.91 1.91 0 012.87 2.51L3227.12 2312A1.92 1.92 0 013225.68 2312.66z"></path><path fill="#f7a18a" d="M3342.31,2293.75a1.91,1.91,0,0,1-1.61-.89c-19.56-30.79-38.21-92.92-38.4-93.54a1.9,1.9,0,1,1,3.65-1.09c.19.62,18.69,62.24,38,92.59a1.91,1.91,0,0,1-1.61,2.93Z"></path><ellipse cx="3258.24" cy="1698.08" fill="#fff" rx="17.66" ry="17.47"></ellipse><path fill="#fbc5a9" d="M3203.05,1203.78s-112.5,225.69-18.89,282.84c62.74,38.31,170.71-57.38,170.71-57.38l-16.42-51.49C3344.05,1368.61,3442.29,1194,3203.05,1203.78Z"></path><path fill="#001a30" d="M3203.05,1200.49a135.34,135.34,0,0,0-5.06,15.87,33.21,33.21,0,0,0-1.61,4.85c-.91,3.46-1.69,7-2.28,10.5a125.81,125.81,0,0,0-1.64,20.88,114.9,114.9,0,0,0,2,21.34c1.25,6.61,2.82,13.91,5.9,20,.35.69,1.55.47,1.4-.38-.58-3.32-1.62-6.6-2.3-9.91s-1.32-6.69-1.81-10.07c-.58-3.94-.94-7.91-1.21-11.88,17.13,83.94,146.07,126.36,146.07,126.36s-4-32.39,10.86-42.69C3369,1334.5,3403.56,1180.31,3203.05,1200.49Z"></path><path fill="#001a30" d="M3192.48,1258.81s-27.7,45.48-34.18,65.59c-6.31,19.58-8.94-39.06,4.37-68.47s29.67-47.2,38.38-47.2S3192.48,1258.81,3192.48,1258.81Z"></path><path fill="#f7a18a" d="M3191.86,1428l-.34,0c-.3-.06-7.5-1.35-20.39-7.91-3-1.5-4.67-3.62-5.08-6.31-1.11-7.34,8.27-16.42,15.81-23.72a75.33,75.33,0,0,0,5.72-5.87c4.84-6.21,4.94-16.81,4.94-16.91a2,2,0,0,1,2-2h0a2,2,0,0,1,2,2c0,.48-.09,12-5.78,19.33a76.1,76.1,0,0,1-6.08,6.28c-6.16,6-15.46,15-14.66,20.3.21,1.36,1.18,2.47,3,3.37,12.29,6.25,19.22,7.53,19.29,7.54a2,2,0,0,1-.34,3.92Z"></path><path fill="#5b1e13" d="M3223 1376.86c-.61 3.32 1 6.4 3.59 6.86s5.19-1.85 5.8-5.17-1-6.4-3.59-6.87S3223.58 1373.54 3223 1376.86zM3175.22 1372.45c-.11 3.38 1.94 6.18 4.57 6.27s4.86-2.58 5-6-1.93-6.18-4.56-6.27S3175.34 1369.07 3175.22 1372.45zM3241.37 1359.86a3.94 3.94 0 01-2.65-1c-.37-.33-8.56-7.5-18.54-3.36a3.95 3.95 0 11-3-7.29c14.7-6.1 26.38 4.36 26.87 4.81a3.95 3.95 0 01-2.66 6.86zM3191.39 1356.08a4 4 0 01-2.55-.93c-.81-.68-8.05-6.32-16.08-.08a3.95 3.95 0 11-4.84-6.24c10.65-8.28 21.69-3.42 26 .31a3.94 3.94 0 01-2.57 6.94z"></path><path fill="#f7a18a" d="M3230.16,1403.7c0,6.27,11,11.38,24.63,11.42s24.68-5,24.7-11.26-11-11.38-24.63-11.42S3230.18,1397.44,3230.16,1403.7Z"></path><path fill="#1e3549" d="M3245.88,1237.31s-6.27,61.82,74.14,96.58c0,0-38.4-47-33.56-79.38,0,0,32.35,51.42,112.76,77,0,0-127.69-95.1-126.07-143.44,0,0-9.22,45.66-3.16,78.82C3270,1266.88,3246.28,1250.1,3245.88,1237.31Z"></path><path fill="#b92357" d="M3022.17,1967.61l-171.44-1.45c-3.09-19.24-7.16-40.16-12.45-60.4C2881,1887.67,3005,1776.61,3005,1776.61c2,37.73-14.9,48.66-21.85,89.37s12.67,71.18,12.67,71.18Z"></path><path fill="#fbc5a9" d="M2701,1607.15l-40.43-107s-17.27-36.37-48.32-63.82c-37.95-33.54-84.17-89.59-84.17-89.59s-23,6.69-8.92,30.56l37.56,65.78-39.57,14.65c-15.45,5-21.92,24.17-11.51,36.62.55.65,1.13,1.29,1.77,1.93,0,0-13.22,19.1,5,35.26,0,0-5,15.1,8.35,26s42.41,8.55,42.41,8.55-16.79,25.66,16.39,54.76l11.82,34.63Z"></path><path fill="#fbc5a9" d="M2615.88,1476.24,2524.44,1440s-16.35,23.28,6,36.18a494,494,0,0,1,44.32,29.5s-14.7,35.88,19.3,56.64Z"></path><path fill="#f7a18a" d="M2594.07,1564a1.72,1.72,0,0,1-.89-.25c-31.19-19-22.68-50.77-20.45-57.48a491.31,491.31,0,0,0-43.12-28.63c-6.67-3.84-10.75-9-12.13-15.21-2.58-11.68,5.22-23,5.56-23.45a1.72,1.72,0,0,1,2-.61l75.26,29.82a1.72,1.72,0,0,1-1.27,3.19l-73.94-29.29c-1.78,3-6.12,11.38-4.29,19.61,1.17,5.26,4.69,9.63,10.48,13,22.21,12.81,44.27,29.46,44.49,29.62a1.73,1.73,0,0,1,.56,2c-.58,1.41-13.72,34.79,18.6,54.52a1.72,1.72,0,0,1-.9,3.18Z"></path><path fill="#f7a18a" d="M2568.62 1507.48c-14.42 0-49.65-1-62.21-9.84a1.71 1.71 0 112-2.8c14.69 10.39 65.82 9.15 66.34 9.14a1.7 1.7 0 011.76 1.67 1.72 1.72 0 01-1.67 1.76C2574.4 1507.42 2572.13 1507.48 2568.62 1507.48zM2544.06 1538.83c-10.08 0-21.55-1.36-32.29-5.74a1.72 1.72 0 011.3-3.18c26.47 10.8 58.8 2.13 59.12 2a1.72 1.72 0 11.91 3.31A119.22 119.22 0 012544.06 1538.83zM2563.18 1567.78a1.71 1.71 0 01-.6-3.32c6.59-2.47 17.18-8 17.56-12.49a1.72 1.72 0 113.42.29c-.69 8-17.83 14.68-19.78 15.41A1.59 1.59 0 012563.18 1567.78z"></path><path fill="#3e2312" d="M3189.62,1440.52s2.8,11.4,10.31,18.25a18.66,18.66,0,0,0,10.16,5c8.37,1.18,11.46-5.66,12.56-12.16a44.57,44.57,0,0,0,.42-10.49A53.54,53.54,0,0,1,3189.62,1440.52Z"></path><path fill="#ef4623" d="M3199.93,1458.77a18.66,18.66,0,0,0,10.16,5c8.37,1.18,11.46-5.66,12.56-12.16C3214.22,1449.06,3203.91,1451.19,3199.93,1458.77Z"></path><path d="M3287.42,2351.64l-.86-5.48h188.83a4.25,4.25,0,0,1,4.27,4.23h0a25.79,25.79,0,0,1-25.93,25.65H3266.28A21.24,21.24,0,0,0,3287.42,2351.64Z"></path><path fill="#404040" d="M3266.29,2376H2874.68l-63.44-33.32-12.13-77.14-43-273.35a21.22,21.22,0,0,1,21.13-24.39h420.51a34.09,34.09,0,0,1,33.81,28.63l55.83,355.16A21.23,21.23,0,0,1,3266.29,2376Z"></path><path fill="#525252" d="M2999.08,2076.78c0,106.48-74.39,192.8-166.15,192.8a144.19,144.19,0,0,1-33.82-4l-43-273.35a21.22,21.22,0,0,1,21.13-24.39H2970C2988.36,1998.83,2999.08,2036.35,2999.08,2076.78Z"></path><path d="M3270.31,2351.64l-55.83-355.17a34.1,34.1,0,0,0-33.81-28.64h17.11a34.1,34.1,0,0,1,33.81,28.64l55.83,355.17a21.24,21.24,0,0,1-21.14,24.4h-17.11A21.24,21.24,0,0,0,3270.31,2351.64Z"></path><ellipse cx="2978.91" cy="2171.64" fill="#fff" rx="26.38" ry="39.49" transform="rotate(-25.3 2978.486 2171.456)"></ellipse><path fill="#065f82" d="M3294.63,2648.33l-166.82,1.2-6.61-167s52.67,121.13,115.15,122.42c44.26.93,518.71-.14,594.51-218.74.09-.26.19-.53.28-.8C3877.19,2491.76,3769.67,2665.57,3294.63,2648.33Z" opacity=".58"></path><path fill="#fbc5a9" d="M3807.14,2151.92l-202.23,28.38-44-185s77.42-53.66,191.85-21.72l26.48,92Z"></path><path fill="#f7a18a" d="M3590,2116.75s35.15-17,89.43,4.87c0,0-67,8.46-120.7,38.38-44.14,24.61-161.65,89.76-161.65,89.76Z"></path><path fill="#eef6f9" d="M3231.55 1409.89l-1.05 0c-15.62-.62-27.77-15.19-27.08-32.48h0c.69-17.28 14-30.8 29.58-30.21a26.87 26.87 0 0119.71 10 33.79 33.79 0 01-1.76 44.23A27 27 0 013231.55 1409.89zm-25.43-32.39c-.63 15.8 10.35 29.11 24.49 29.68a24.14 24.14 0 0018.41-7.62 31.12 31.12 0 001.62-40.62 24.21 24.21 0 00-17.75-9.06c-14.1-.53-26.14 11.82-26.77 27.62zM3160.12 1407l-1 0c-15.62-.63-27.76-15.19-27.07-32.48h0a32.9 32.9 0 019.13-21.78 26.85 26.85 0 0120.45-8.43c15.62.62 27.76 15.19 27.07 32.47a32.91 32.91 0 01-9.13 21.79A27 27 0 013160.12 1407zm-25.43-32.39c-.63 15.8 10.36 29.11 24.49 29.67a24.12 24.12 0 0018.41-7.61 30.28 30.28 0 008.37-20c.63-15.8-10.36-29.11-24.49-29.68a24.17 24.17 0 00-18.41 7.62 30.26 30.26 0 00-8.37 20z"></path><path fill="#eef6f9" d="M3205.87 1375.35a1.3 1.3 0 01-.66-.17c-.12-.07-12-6.63-16.92-.93a1.35 1.35 0 11-2-1.76c6.38-7.36 19.71 0 20.28.34a1.35 1.35 0 01.51 1.84A1.32 1.32 0 013205.87 1375.35zM3258.33 1374.29a1.35 1.35 0 01-.36-2.65l94.2-26.58a1.35 1.35 0 01.73 2.6l-94.2 26.57A1.19 1.19 0 013258.33 1374.29z"></path><path fill="#f68737" d="M3711.78,1155.33a90.93,90.93,0,0,1-1.08-14c0-51.87,43.61-93.9,97.44-93.9a99.88,99.88,0,0,1,43.44,9.85c20.93-41.45,65.05-70,116.09-70,71.28,0,129.06,55.68,129.06,124.38,0,1.93-.06,3.85-.15,5.77,2.15-.14,4.33-.24,6.52-.24,53.54,0,96.93,41.83,96.93,93.43,0,51.07-42.53,92.55-95.3,93.39v0H3715.58v0l-1.06,0c-42.62,0-77.18-33.31-77.18-74.38C3637.34,1189.44,3670.43,1156.72,3711.78,1155.33Z"></path><path fill="#f04e23" d="M4200,1210.61c0,51.07-42.54,92.55-95.3,93.39v0H3715.59v0l-1.07,0a79.12,79.12,0,0,1-36.7-8.93,76.57,76.57,0,0,0,20.63,2.8l1,0v0h374.07v0c50.72-.8,91.61-40.67,91.61-89.77,0-49.59-41.71-89.8-93.17-89.8-2.11,0-4.21.09-6.28.23.09-1.85.15-3.69.15-5.55,0-66-55.55-119.56-124.06-119.56a129.35,129.35,0,0,0-18.05,1.26,133,133,0,0,1,43.92-7.39c71.28,0,129.06,55.67,129.06,124.37,0,1.93-.06,3.85-.15,5.77,2.15-.13,4.33-.23,6.53-.23C4156.64,1117.19,4200,1159,4200,1210.61Z"></path><path fill="#fff" d="M3879 1222.19a53 53 0 01-21.11-17.47c-16.63-22.69-16.08-54.33 1.33-77.46a69.79 69.79 0 0139.65-26.28c2.2-.55 2.87-1.47 2.8-3.66-.16-5.09-.06-10.19 0-15.28 0-.79.07-1.58.1-2.18l35.45 35.29-35.41 35.42a6.26 6.26 0 01-.13-1.17c0-4.93 0-9.86 0-14.78 0-3.2-.28-3.46-3.37-2.87-19.59 3.72-32.39 15.41-37.65 34.34-5.93 21.33.74 39.45 16.57 54.48C3877.75 1221.13 3878.38 1221.65 3879 1222.19zM3893.47 1224.23l34.76-35.37c.1 1.27.21 2 .21 2.74 0 4.76.06 9.53 0 14.29 0 2.12.54 2.89 2.88 2.52a47.34 47.34 0 0040.23-43.24c1.5-17.72-4.66-32.5-17.31-44.76-.59-.58-1.19-1.13-1.77-1.71-.08-.09-.06-.27-.14-.66a57.28 57.28 0 0117.43 14c20.09 24 19.68 59.74-.83 83.71a70.72 70.72 0 01-37.65 23.37c-2.18.54-2.92 1.5-2.86 3.7.14 4.84 0 9.69 0 14.54 0 .78-.08 1.57-.15 2.68z"></path><circle cx="1328.12" cy="1246.94" r="162.12" fill="#bf222b" transform="rotate(-45 1328.13 1246.94)"></circle><path fill="#fff" d="M1294.91,1324h0a15.73,15.73,0,0,1-11.12-4.61l-39.73-39.73a15.72,15.72,0,1,1,22.24-22.23l28.61,28.61,111.49-111.49a15.73,15.73,0,0,1,22.24,22.24L1306,1319.36A15.73,15.73,0,0,1,1294.91,1324Z"></path><ellipse cx="797.93" cy="2126.99" fill="#91262c" rx="218.65" ry="33.1"></ellipse><path fill="#4bddb0" d="M832.11,2000.83c15.58-29.5,36-56,61.47-74.1,29.22-20.73,64.07-29.68,98.74-31,30.69-1.19,62.93,3.86,88.91,23.65s43.9,57,36.94,91.34c-5.32,26.24-24,46.51-45.52,56.86s-45.5,12-69,11.39-47.09-3.45-70.49-1.55a180.64,180.64,0,0,0-86.58,30.85c-11.94,8.09-25.65,19.28-40.4,13.08-11.62-4.89-13.67-14.53-10.3-26.88C804.65,2062.25,817,2029.53,832.11,2000.83Z"></path><path fill="#1fa47c" d="M987.52,1954.06C868,1942.37,792.19,2080.18,776.65,2180.71c-2,12.92,18.18,15.51,20.18,2.56,8.23-53.27,29.83-104,63.79-146,30.37-37.56,74-67.94,124.33-63C997.94,1975.5,1000.59,1955.34,987.52,1954.06Z"></path><path fill="#137756" d="M722.79,1655.56c-18.68-37.53-44.26-72.09-79.39-92.1s-80.92-23.42-117.78-1.2c-28.49,17.17-48.81,47.43-62,79.21-15.32,36.82-22.43,77.27-18.4,115.92s19.48,75.31,44.94,101.63c22.17,22.91,50.82,37.35,79,51.43l127.38,63.69c9.81,4.9,20.77,9.91,31.64,6.37,31.56-10.26,32.17-82.66,34.36-110.24a425.44,425.44,0,0,0-12.41-142A383.35,383.35,0,0,0,722.79,1655.56Z"></path><path fill="#1fa47c" d="M766.31 2205.2c10.22-177.34-47.06-355.14-157.61-494-8.63-10.84-23.79 4.46-15.25 15.19 107.07 134.46 161.21 307.57 151.34 479C744 2219.24 765.52 2219 766.31 2205.2zM991.78 1585.59c24-17.63 50.21-32.59 78.69-41.21s59.35-10.67 88.06-2.86c51.45 14 92 61.63 97.57 114.66s-24.09 108.06-71.48 132.5c-36.9 19-80 19.8-121.21 25.24a511.15 511.15 0 00-124.52 32.87c-21.74 8.8-78.55 48.16-99.56 21.64-15.22-19.19 4.73-61.21 10.75-80.79a401.69 401.69 0 0150.4-106.39A386.51 386.51 0 01991.78 1585.59z"></path><path fill="#137756" d="M1063.25,1628.93c-148.77,64.17-228.51,217.15-266.35,366.89-12.29,48.67-21.27,98.09-29.26,147.63-2.21,13.67,19.25,15.39,21.45,1.78,24.9-154.4,63-319.65,182.23-430.33a355.83,355.83,0,0,1,101.21-66.55C1085.25,1642.86,1076,1623.44,1063.25,1628.93Z"></path><path fill="#4bddb0" d="M874.73,1514.05c4.45-29.23,7.84-58.91,4.83-88.2s-12.88-58.42-32.14-79.89c-29.82-33.25-78-43.39-122.06-37.55-33.22,4.41-66.16,17.32-91.2,40.6s-41.35,57.61-39.35,92c2.37,40.66,28.58,74.88,55.53,104.23s56.77,58.25,69.54,96.6c6,18.16,7.9,37.52,11.72,56.34s10,37.85,22.9,51.6c10.58,11.29,30.52,21,46.12,14.74,12.77-5.1,16.53-22.61,20.62-34.4a1218.78,1218.78,0,0,0,39.07-138.43Q868.79,1553.11,874.73,1514.05Z"></path><path fill="#1fa47c" d="M790.44,1608.32q-7.05-81.72-18.52-163c-1.9-13.5-23.46-13.49-21.53.23a3036.06,3036.06,0,0,1,26,571.37q-4,81.91-12.5,163.52c-1.42,13.74,20.11,13.44,21.52-.23A3036.44,3036.44,0,0,0,790.44,1608.32Z"></path><path fill="#f99e1c" d="M525,2269.21c0-55.57,21.91-106.64,58.53-147.15,0,.07-.09.14-.09.2,0,13.36,96.56,24.18,215.67,24.18,115.28,0,209.15-10.15,215.09-22.9,35.83,40.26,57.21,90.78,57.21,145.67a210.92,210.92,0,0,1-20.29,90.05c13,21.66,20.29,45.35,20.29,70.21,0,102.58-122.32,185.73-273.21,185.73S525,2532.05,525,2429.47c0-24.86,7.23-48.56,20.28-70.22A211,211,0,0,1,525,2269.21Z"></path><path fill="#f36e23" d="M1064.18,2323.61a216.48,216.48,0,0,1-13,35.65,142.59,142.59,0,0,1,16.41,39.26c-58.09,13.68-135.8,25.11-233.55,25.11-85.6,0-186.62-8.85-303-32.54a145.07,145.07,0,0,1,14.35-31.84,214.76,214.76,0,0,1-14.87-42.87C784.25,2369.53,962.14,2348.87,1064.18,2323.61Z"></path></g></svg>